<?xml version="1.0" encoding="UTF-8"?>
<!--Generator: Apple Native CoreSVG 341-->
<!DOCTYPE svg
PUBLIC "-//W3C//DTD SVG 1.1//EN"
       "http://www.w3.org/Graphics/SVG/1.1/DTD/svg11.dtd">
<svg version="1.1" xmlns="http://www.w3.org/2000/svg" xmlns:xlink="http://www.w3.org/1999/xlink" viewBox="0 0 564.75 768.25">
 <g>
  <rect height="768.25" opacity="0" width="564.75" x="0" y="0"/>
  <path d="M282.25 689.75C438.25 689.75 564.75 563.25 564.75 407C564.75 395 554.75 385 542.5 385C530.5 385 520.5 395 520.5 407C520.5 538.5 413.75 645.25 282.25 645.25C150.75 645.25 44.25 538.5 44.25 407C44.25 275.5 150.75 169 282.25 169C313 169 342.25 174.75 369 185.5C383.25 191 399.5 183 400 166.5C400.5 152.75 390.75 147 382.75 144C352.5 132 318.25 125 282.25 125C126.25 125 0 251.25 0 407.25C0 563.25 126.25 689.75 282.25 689.75ZM375 162.5L251.5 285.75C247 290 245.25 295.5 245.25 301.5C245.25 314 254.5 323.75 267 323.75C273.75 323.75 278.75 321.25 283 317.25L418.75 180.25C424.25 174.25 426.5 168.75 426.5 162.5C426.5 156.5 423.75 150.25 418.75 145L283 7C278.75 2.75 273.75 0 266.75 0C254.5 0 245.25 10.25 245.25 22.75C245.25 28.5 247 34.5 251.25 38.75Z" fill="white" fill-opacity="0.85"/>
 </g>
</svg>
