<?xml version="1.0" encoding="UTF-8"?>
<!--Generator: Apple Native CoreSVG 341-->
<!DOCTYPE svg
PUBLIC "-//W3C//DTD SVG 1.1//EN"
       "http://www.w3.org/Graphics/SVG/1.1/DTD/svg11.dtd">
<svg version="1.1" xmlns="http://www.w3.org/2000/svg" xmlns:xlink="http://www.w3.org/1999/xlink" viewBox="0 0 599 484.25">
 <g>
  <rect height="484.25" opacity="0" width="599" x="0" y="0"/>
  <path d="M242 484C255.75 484 266 474 266 460.5C266 454 263.75 447.5 259.5 443L171.75 354.5L49.75 242L171.75 129.5L259.5 40.75C263.75 36.25 266 30 266 23.5C266 10 255.75 0 242 0C235.5 0 229.5 2.25 223 8.75L8.25 223.75C2.75 229 0 235.25 0 242C0 248.75 2.75 255 8.25 260L224.5 476.5C230 481.5 235.5 484 242 484ZM147.75 266.25L575 266.25C589 266.25 599 256 599 242C599 227.75 589 217.75 575 217.75L147.75 217.75L49.25 223C38.25 223 30.25 230.75 30.25 242C30.25 253 38.25 260.75 49.5 260.75Z" fill="white" fill-opacity="0.85"/>
 </g>
</svg>
