<?xml version="1.0" encoding="UTF-8"?>
<!--Generator: Apple Native CoreSVG 341-->
<!DOCTYPE svg
PUBLIC "-//W3C//DTD SVG 1.1//EN"
       "http://www.w3.org/Graphics/SVG/1.1/DTD/svg11.dtd">
<svg version="1.1" xmlns="http://www.w3.org/2000/svg" xmlns:xlink="http://www.w3.org/1999/xlink" viewBox="0 0 821.25 694.25">
 <g>
  <rect height="694.25" opacity="0" width="821.25" x="0" y="0"/>
  <path d="M0 322.25C0 434.25 76.75 508.5 192.25 508.5C305.5 508.5 381.5 442 381.5 342.25C381.5 300.75 366.25 265.75 342 244.75C332.25 236.5 326.25 233.75 316.75 233.75C304 233.75 295.5 241.75 295.5 253C295.5 266.25 302.75 270 315 281.25C329.75 295.5 338 316.75 338 341.5C338 415 279.75 464.5 193 464.5C103.5 464.5 44.25 407.5 44.25 321.75C44.25 273 69.25 225.5 109.5 198.75L88.5 160C33.75 194 0 257 0 322.25ZM82.25 158.5C82.25 225.75 128.75 276.25 205.75 276.25C217.75 276.25 227.75 266 227.75 254C227.75 242 217.75 231.75 205.75 231.75C155.75 231.75 126.5 199.75 126.5 158.5C126.5 113.25 163.25 78.25 216.75 78.25C239.75 78.25 264.25 85 286.75 99.75L312.5 63.5C282.25 43.25 249.25 33.75 217.25 33.75C139.5 33.75 82.25 87.25 82.25 158.5ZM249 149.5C248.5 164 258.25 173.5 271 173.5C283 173.5 292.25 165.5 292.75 151.5C295.25 89.5 340.5 44 404 44C441.25 44 474.25 63 487.25 94.75C489.25 99.25 492.75 99.5 498.5 98C510.25 94.25 522.75 92.25 535.25 92.5C594.25 93 646.25 137 646.25 206C646.25 352.25 436.75 336.75 436.75 480C436.75 546.75 488.75 588.25 559.5 588.25C566.5 588.25 575 587.75 583.25 587.5C590 643.5 623.25 693.75 676 693.75C751.5 693.75 789 600.75 789 501.75C789 465 787 439 784.5 414.25L740 427.25C742.75 451.75 745 474 745 501.25C745 584.75 716.5 649.5 676 649.5C637 649.5 619.25 599.75 619.25 554C619.25 550.5 617.5 548.5 613 548.5C604.75 548.75 590.5 549 583 549C521.5 549 481 527.75 481 479.25C481 362.75 690.5 382.5 690.5 206C690.5 111.25 622.25 48.25 540.5 48.25C532.75 48 522.5 49.5 512.25 52C488.25 19.25 448 0 404.25 0C316 0 253 61.5 249 149.5ZM623.5 457C623.5 469.25 633.25 478.25 645.75 479C751 484.5 821.25 422.25 821.25 323.5C821.25 240.25 762 177.5 673.5 167L667 211.25C733 212.5 777 257.25 777 323.5C777 395 724.25 439.75 645.75 435C633.25 434 623.5 444.75 623.5 457ZM457.25 501.75C439 508.25 416.5 511.25 396.25 511.25C344.25 511.25 290 491.25 268 458L231.25 488C264.5 529 323 555.5 392 555.5C416.25 555.5 444.75 552 472 544.25ZM354 284L368.75 326C446 310.5 481.75 262.5 481.5 189.25C481.5 177.25 471.5 167.25 459.25 167.25C447.25 167.25 437.25 177.25 437.25 189.25C437.25 243.25 413.75 275 354 284Z" fill="white" fill-opacity="0.85"/>
 </g>
</svg>
