<?xml version="1.0" encoding="UTF-8"?>
<!--Generator: Apple Native CoreSVG 341-->
<!DOCTYPE svg
PUBLIC "-//W3C//DTD SVG 1.1//EN"
       "http://www.w3.org/Graphics/SVG/1.1/DTD/svg11.dtd">
<svg version="1.1" xmlns="http://www.w3.org/2000/svg" xmlns:xlink="http://www.w3.org/1999/xlink" viewBox="0 0 612.25 743.25">
 <g>
  <rect height="743.25" opacity="0" width="612.25" x="0" y="0"/>
  <path d="M612.25 207.5L612.25 691C612.25 723.25 594.25 743 564 743L403.25 743C430.223 743 447.457 727.297 450.834 701L551.5 701C564.75 701 570.25 695.25 570.25 682L570.25 216C570.25 202.75 564.75 197 551.5 197L451.5 197L451.5 155.25L564 155.25C594.25 155.25 612.25 174.75 612.25 207.5ZM512.25 526.25L512.25 576.75C512.25 582.25 508.75 586.25 502.75 586.25L451.5 586.25L451.5 516.5L502.75 516.5C508.75 516.5 512.25 520.5 512.25 526.25ZM512.25 409.25L512.25 459.5C512.25 465.25 508.75 469 502.75 469L451.5 469L451.5 399.5L502.75 399.5C508.75 399.5 512.25 403.25 512.25 409.25ZM512.25 292L512.25 342.5C512.25 348 508.75 352 502.75 352L451.5 352L451.5 282.5L502.75 282.5C508.75 282.5 512.25 286.25 512.25 292Z" fill="white" fill-opacity="0.85"/>
  <path d="M48.25 743L403.25 743C433.5 743 451.5 723.25 451.5 691L451.5 52C451.5 19.5 433.5 0 403.25 0L48.25 0C18 0 0 19.5 0 52L0 691C0 723.25 18 743 48.25 743ZM60.75 701C48 701 42 695.25 42 682L42 60.75C42 47.5 48 42 60.75 42L390.5 42C403.5 42 409.5 47.5 409.5 60.75L409.5 682C409.5 695.25 403.5 701 390.5 701ZM124 220.5L189.5 220.5C196.75 220.5 201.5 215.5 201.5 208L201.5 144.25C201.5 137 196.75 132 189.5 132L124 132C116.75 132 112.25 137 112.25 144.25L112.25 208C112.25 215.5 116.75 220.5 124 220.5ZM261.75 220.5L327 220.5C334.5 220.5 339.25 215.5 339.25 208L339.25 144.25C339.25 137 334.5 132 327 132L261.75 132C254.25 132 249.75 137 249.75 144.25L249.75 208C249.75 215.5 254.25 220.5 261.75 220.5ZM124 351.75L189.5 351.75C196.75 351.75 201.5 346.75 201.5 339.25L201.5 275.5C201.5 268.25 196.75 263.25 189.5 263.25L124 263.25C116.75 263.25 112.25 268.25 112.25 275.5L112.25 339.25C112.25 346.75 116.75 351.75 124 351.75ZM261.75 351.75L327 351.75C334.5 351.75 339.25 346.75 339.25 339.25L339.25 275.5C339.25 268.25 334.5 263.25 327 263.25L261.75 263.25C254.25 263.25 249.75 268.25 249.75 275.5L249.75 339.25C249.75 346.75 254.25 351.75 261.75 351.75ZM124 482.75L189.5 482.75C196.75 482.75 201.5 478 201.5 470.5L201.5 406.75C201.5 399.5 196.75 394.5 189.5 394.5L124 394.5C116.75 394.5 112.25 399.5 112.25 406.75L112.25 470.5C112.25 478 116.75 482.75 124 482.75ZM261.75 482.75L327 482.75C334.5 482.75 339.25 478 339.25 470.5L339.25 406.75C339.25 399.5 334.5 394.5 327 394.5L261.75 394.5C254.25 394.5 249.75 399.5 249.75 406.75L249.75 470.5C249.75 478 254.25 482.75 261.75 482.75ZM134.25 721L169 721L169 620.75C169 613.5 172.5 609.75 180.25 609.75L271.25 609.75C279 609.75 282.5 613.5 282.5 620.75L282.5 721L317.25 721L317.25 612C317.25 586.75 306.25 574.75 281.75 574.75L169.75 574.75C145.25 574.75 134.25 586.75 134.25 612Z" fill="white" fill-opacity="0.85"/>
 </g>
</svg>
