<?xml version="1.0" encoding="UTF-8"?>
<!--Generator: Apple Native CoreSVG 341-->
<!DOCTYPE svg
PUBLIC "-//W3C//DTD SVG 1.1//EN"
       "http://www.w3.org/Graphics/SVG/1.1/DTD/svg11.dtd">
<svg version="1.1" xmlns="http://www.w3.org/2000/svg" xmlns:xlink="http://www.w3.org/1999/xlink" viewBox="0 0 692 823.25">
 <g>
  <rect height="823.25" opacity="0" width="692" x="0" y="0"/>
  <path d="M652 247.5L652 731C652 763.25 634.25 783 604 783L497.354 783C506.171 768.523 511 750.779 511 731L511 630L562.75 630C569 630 572.75 625.75 572.75 620.25L572.75 568.75C572.75 562.75 569 558.5 562.75 558.5L511 558.5L511 509.75L562.75 509.75C569 509.75 572.75 506 572.75 500L572.75 448.75C572.75 442.5 569 438.75 562.75 438.75L511 438.75L511 390L562.75 390C569 390 572.75 385.75 572.75 380.25L572.75 328.25C572.75 322.75 569 318.5 562.75 318.5L511 318.5L511 195.25L604 195.25C634.25 195.25 652 214.75 652 247.5Z" fill="white" fill-opacity="0.85"/>
  <path d="M131 240.5L131 174.25C131 166.25 135.75 160.75 143.5 160.75L211.75 160.75C219.5 160.75 225 166.25 225 174.25L225 240.5C225 248.5 219.5 253.75 211.75 253.75L143.5 253.75C135.75 253.75 131 248.5 131 240.5ZM286.25 240.5L286.25 174.25C286.25 166.25 291.25 160.75 299.25 160.75L367.25 160.75C375.25 160.75 380.25 166.25 380.25 174.25L380.25 240.5C380.25 248.5 375.25 253.75 367.25 253.75L299.25 253.75C291.25 253.75 286.25 248.5 286.25 240.5ZM131 378L131 311.5C131 303.5 135.75 298.5 143.5 298.5L211.75 298.5C219.5 298.5 225 303.5 225 311.5L225 378C225 386 219.5 391.25 211.75 391.25L143.5 391.25C135.75 391.25 131 386 131 378ZM286.25 378L286.25 311.5C286.25 303.5 291.25 298.5 299.25 298.5L367.25 298.5C375.25 298.5 380.25 303.5 380.25 311.5L380.25 378C380.25 386 375.25 391.25 367.25 391.25L299.25 391.25C291.25 391.25 286.25 386 286.25 378ZM131 515.25L131 449C131 441.25 135.75 435.75 143.5 435.75L211.75 435.75C219.5 435.75 225 441.25 225 449L225 515.25C225 523.25 219.5 528.75 211.75 528.75L143.5 528.75C135.75 528.75 131 523.25 131 515.25ZM286.25 515.25L286.25 449C286.25 441.25 291.25 435.75 299.25 435.75L367.25 435.75C375.25 435.75 380.25 441.25 380.25 449L380.25 515.25C380.25 523.25 375.25 528.75 367.25 528.75L299.25 528.75C291.25 528.75 286.25 523.25 286.25 515.25ZM88 783L422.75 783C453 783 471 763.25 471 731L471 92C471 59.5 453 40 422.75 40L88 40C57.75 40 39.75 59.5 39.75 92L39.75 731C39.75 763.25 57.75 783 88 783ZM179 740.75L179 647.25C179 629.5 189 619.75 206.75 619.75L304.5 619.75C322.5 619.75 332 629.5 332 647.25L332 740.75Z" fill="white" fill-opacity="0.85"/>
 </g>
</svg>
