<?xml version="1.0" encoding="UTF-8"?>
<!--Generator: Apple Native CoreSVG 341-->
<!DOCTYPE svg
PUBLIC "-//W3C//DTD SVG 1.1//EN"
       "http://www.w3.org/Graphics/SVG/1.1/DTD/svg11.dtd">
<svg version="1.1" xmlns="http://www.w3.org/2000/svg" xmlns:xlink="http://www.w3.org/1999/xlink" viewBox="0 0 692.75 737.75">
 <g>
  <rect height="737.75" opacity="0" width="692.75" x="0" y="0"/>
  <path d="M85 737.75L122.5 737.75C146.25 737.75 164.5 719.5 164.5 696L164.5 643C226.5 647.5 288.5 650 346.25 650C404 650 466.25 647.75 528.25 643.25L528.25 696C528.25 719.5 546.5 737.75 570.25 737.75L607.75 737.75C631.5 737.75 649.75 719.25 649.75 696L649.75 80C649.75 39.5 626 17 584.25 12.25C515.5 4.25 429.25 0 346.25 0C263.5 0 177.5 4 108.75 12.25C66.75 17 43 39.5 43 80L43 696C43 719.25 61.25 737.75 85 737.75ZM133 433.75C112.5 430.75 102.25 419 102.25 397.25L102.25 107C102.25 82.75 113.75 69.75 136.75 67.25C275 53 419.25 53 556.5 67.25C579.5 69.75 590.75 82.75 590.75 107L590.75 397.25C590.75 419 580.5 430.75 560 433.75C426.25 452.25 264.75 452 133 433.75ZM154.75 572C132.25 572 115.5 555.25 115.5 533C115.5 510.5 132.25 493.75 154.75 493.75C177 493.75 193.75 510.5 193.75 533C193.75 555.25 177 572 154.75 572ZM274 559.25C258.25 559.25 247.25 548.25 247.25 532.5C247.25 516.75 258.25 506 274 506L417.75 506C433.5 506 444.5 516.75 444.5 532.5C444.5 548.25 433.5 559.25 417.75 559.25ZM538.25 572C515.75 572 499.25 555.25 499.25 533C499.25 510.5 515.75 493.75 538.25 493.75C560.5 493.75 577.25 510.5 577.25 533C577.25 555.25 560.5 572 538.25 572ZM43 296L43 118.25L28.25 118.25C11.25 118.25 0 128.75 0 144.5L0 269.75C0 285.5 11.25 296 28.25 296ZM649.75 296L664.5 296C681.5 296 692.75 285.5 692.75 269.75L692.75 144.5C692.75 128.75 681.5 118.25 664.5 118.25L649.75 118.25Z" fill="white" fill-opacity="0.85"/>
 </g>
</svg>
