<?xml version="1.0" encoding="UTF-8"?>
<!--Generator: Apple Native CoreSVG 341-->
<!DOCTYPE svg
PUBLIC "-//W3C//DTD SVG 1.1//EN"
       "http://www.w3.org/Graphics/SVG/1.1/DTD/svg11.dtd">
<svg version="1.1" xmlns="http://www.w3.org/2000/svg" xmlns:xlink="http://www.w3.org/1999/xlink" viewBox="0 0 546 329.25">
 <g>
  <rect height="329.25" opacity="0" width="546" x="0" y="0"/>
  <path d="M7.5 265.25C3 269.75 0 276 0 283C0 297.25 10.75 308 25 308C31.75 308 38.25 305.5 42.5 300.75L288.5 45.25L257.75 45.25L503.25 300.75C507.75 305.5 514.5 308 521 308C535.25 308 546 297.25 546 283C546 276 543.25 270 538.5 265.25L292 8.5C287 3.25 280.25 0 273 0C265.75 0 259.25 3 254 8.5Z" fill="white" fill-opacity="0.85"/>
 </g>
</svg>
