<?xml version="1.0" encoding="UTF-8"?>
<!--Generator: Apple Native CoreSVG 341-->
<!DOCTYPE svg
PUBLIC "-//W3C//DTD SVG 1.1//EN"
       "http://www.w3.org/Graphics/SVG/1.1/DTD/svg11.dtd">
<svg version="1.1" xmlns="http://www.w3.org/2000/svg" xmlns:xlink="http://www.w3.org/1999/xlink" viewBox="0 0 546 331.75">
 <g>
  <rect height="331.75" opacity="0" width="546" x="0" y="0"/>
  <path d="M273 331.75C280.25 331.75 287 328.5 292 323L538.5 66.25C543.25 61.5 546 55.5 546 48.5C546 34.5 535.25 23.75 521 23.75C514.5 23.75 508 26.25 503.25 30.75L257.75 286.25L288.5 286.25L42.5 30.75C38 26.25 31.75 23.75 25 23.75C10.75 23.75 0 34.5 0 48.5C0 55.5 3 61.5 7.5 66.5L254 323.25C259.5 328.5 265.75 331.75 273 331.75Z" fill="white" fill-opacity="0.85"/>
 </g>
</svg>
