<?xml version="1.0" encoding="UTF-8"?>
<!--Generator: Apple Native CoreSVG 341-->
<!DOCTYPE svg
PUBLIC "-//W3C//DTD SVG 1.1//EN"
       "http://www.w3.org/Graphics/SVG/1.1/DTD/svg11.dtd">
<svg version="1.1" xmlns="http://www.w3.org/2000/svg" xmlns:xlink="http://www.w3.org/1999/xlink" viewBox="0 0 809.5 649.25">
 <g>
  <rect height="649.25" opacity="0" width="809.5" x="0" y="0"/>
  <path d="M137.5 504L147 542C159 591.25 184.75 615.5 235.75 615.5L573.75 615.5C625 615.5 650.75 591.75 662.75 542L672.25 504ZM127.75 464L682.25 464L741 223.75L715.25 208L577 306.25C564.5 314.75 555.25 312 547.75 301.5L414.5 105.75L395.5 105.25L260.25 303.25C253.5 312.75 245.5 315 234 307L96.75 209.75L67.75 219.75ZM74.75 276.25C115.75 276.25 149.25 242.75 149.25 201.5C149.25 160.75 115.75 127 74.75 127C33.5 127 0 160.5 0 201.5C0 242.75 33.75 276.25 74.75 276.25ZM404.75 149C446 149 479.25 115.75 479.25 74.5C479.25 33.5 446 0 404.75 0C363.5 0 330 33.25 330 74.5C330 115.75 363.75 149 404.75 149ZM734.75 276.25C775.75 276.25 809.5 242.75 809.5 201.5C809.5 160.5 776 127 734.75 127C693.5 127 660.25 160.75 660.25 201.5C660.25 242.75 693.5 276.25 734.75 276.25Z" fill="white" fill-opacity="0.85"/>
 </g>
</svg>
