<?xml version="1.0" encoding="UTF-8"?>
<!--Generator: Apple Native CoreSVG 341-->
<!DOCTYPE svg
PUBLIC "-//W3C//DTD SVG 1.1//EN"
       "http://www.w3.org/Graphics/SVG/1.1/DTD/svg11.dtd">
<svg version="1.1" xmlns="http://www.w3.org/2000/svg" xmlns:xlink="http://www.w3.org/1999/xlink" viewBox="0 0 651.25 651.75">
 <g>
  <rect height="651.75" opacity="0" width="651.25" x="0" y="0"/>
  <path d="M325.5 651.25C505.25 651.25 651.25 505.5 651.25 325.75C651.25 146 505.25 0 325.5 0C145.75 0 0 146 0 325.75C0 505.5 145.75 651.25 325.5 651.25ZM325.5 604.75C171.25 604.75 46.5 480 46.5 325.75C46.5 171.5 171.25 46.75 325.5 46.75C479.75 46.75 604.5 171.5 604.5 325.75C604.5 480 479.75 604.75 325.5 604.75Z" fill="white" fill-opacity="0.85"/>
  <path d="M325.75 464.75C379 464.75 427.25 440 427.25 386C427.25 339 389.25 320.5 345.25 310.25L314.75 303C287 296.5 260.75 284.5 260.75 256.75C260.75 224.75 295 210.75 325.75 210.75C358.25 210.75 382.5 225 390.75 253.25C393.5 262 399 266.25 406.75 266.25C414.25 266.25 422.25 261.5 422.25 251.75C422.25 212.25 372.25 182.25 325.75 182.25C275.5 182.25 228.75 210.25 228.75 259C228.75 305.5 268.5 323.5 307.75 333L338.5 340.25C368.25 347.25 395.25 358 395.25 388.5C395.25 424.5 360.5 436.75 326.25 436.75C290.75 436.75 265 424 254.75 392C251.5 383.25 246.5 379.75 238.75 379.75C230.25 379.75 223.5 385.25 223.5 394.5C223.5 397.5 224 400.75 225 404C236.75 446.5 283.25 464.75 325.75 464.75ZM325.25 503.25C330.5 503.25 335 499 335 493.5L335 155C335 149.5 330.5 145.25 325.25 145.25C320 145.25 315.5 149.5 315.5 155L315.5 493.5C315.5 499 320 503.25 325.25 503.25Z" fill="white" fill-opacity="0.85"/>
 </g>
</svg>
