<?xml version="1.0" encoding="UTF-8"?>
<!--Generator: Apple Native CoreSVG 341-->
<!DOCTYPE svg
PUBLIC "-//W3C//DTD SVG 1.1//EN"
       "http://www.w3.org/Graphics/SVG/1.1/DTD/svg11.dtd">
<svg version="1.1" xmlns="http://www.w3.org/2000/svg" xmlns:xlink="http://www.w3.org/1999/xlink" viewBox="0 0 596.75 623.25">
 <g>
  <rect height="623.25" opacity="0" width="596.75" x="0" y="0"/>
  <path d="M56.5 623.25C68.25 623.25 77.5 613.75 77.5 602L77.5 417.5C86.75 414.75 116.75 402.25 166 402.25C284.25 402.25 357.25 460.25 470.25 460.25C519 460.25 538.75 454.75 562.25 444.25C583 434.75 596.75 419.5 596.75 393.25L596.75 70C596.75 53.75 583.75 44.75 567 44.75C551.5 44.75 521.75 58.75 466.25 58.75C353 58.75 280 0.75 162 0.75C113.25 0.75 93.75 6.25 70.25 16.75C49.25 26.25 35.5 41.5 35.5 67.75L35.5 602C35.5 613.5 45.25 623.25 56.5 623.25ZM77.5 277.75L77.5 168.5C82.5 157.5 111.75 143 162 143C172.25 143 185 143.5 196.5 144.75L196.5 44.5C240 48.75 278.5 61.25 317.5 73L317.5 173.25C358.25 186 396.75 196.25 438.5 199.75L438.5 99.5C447.5 100.25 456.75 100.5 466.25 100.5C500.25 100.5 529 96.75 555 89.25L555 189.5C538.75 194 506.25 200.75 466.25 200.75C456.75 200.75 447 200.25 438.5 199.75L438.5 309C446.5 309.75 455.5 310.25 466.25 310.25C500.25 310.25 529 306.25 555 298.75L555 392.75C550 403.75 521 418.25 470.25 418.25C459.5 418.25 449 417.75 438.5 416.75L438.5 309C395.25 304.5 360.5 296.5 317.5 282.75L317.5 387.75C280 376.5 241.25 365 196.5 361.5L196.5 254C184.75 253 177.25 252.25 162 252.25C111.5 252.25 82.5 266.75 77.5 277.75ZM196.5 254C241 258.75 274.75 269.75 317.5 282.75L317.5 173.25C277.25 161.25 241.25 149.25 196.5 144.75Z" fill="white" fill-opacity="0.85"/>
 </g>
</svg>
