<?xml version="1.0" encoding="UTF-8"?>
<!--Generator: Apple Native CoreSVG 341-->
<!DOCTYPE svg
PUBLIC "-//W3C//DTD SVG 1.1//EN"
       "http://www.w3.org/Graphics/SVG/1.1/DTD/svg11.dtd">
<svg version="1.1" xmlns="http://www.w3.org/2000/svg" xmlns:xlink="http://www.w3.org/1999/xlink" viewBox="0 0 683.25 682.75">
 <g>
  <rect height="682.75" opacity="0" width="683.25" x="0" y="0"/>
  <path d="M309 682.75L374.25 682.75C397.75 682.75 415.5 668.75 420.75 645.75L435 584.25L448.5 579.5L502 612.5C522 625 544.5 622.5 561.25 605.75L606.25 560.5C623.25 543.5 626 521.25 613.5 501.5L580 448L584.75 435L646.25 420.75C669 415.5 683.25 397.5 683.25 374L683.25 310C683.25 286.75 669.25 269 646.25 263.5L585.25 248.75L580.25 235.25L613.75 182C626.25 162 623.75 139.75 606.5 122.75L561.5 77.5C545 61 522.5 58 502.5 70.5L449 103.5L435 98.25L420.75 37C415.5 13.75 397.75 0 374.25 0L309 0C285.5 0 267.75 13.75 262.5 37L248.25 98.25L234 103.5L180.75 70.5C160.75 58 138.25 61 121.75 77.5L76.5 122.75C59.5 139.75 57 162 69.5 182L103 235.25L97.75 248.75L37 263.5C14 269 0 286.75 0 310L0 374C0 397.5 14.25 415.5 37 420.75L98.25 435L103.25 448L69.75 501.5C57.25 521.25 60 543.5 76.75 560.5L122 605.75C138.75 622.5 161.25 625 181.25 612.5L234.5 579.5L248.25 584.25L262.5 645.75C267.75 668.75 285.5 682.75 309 682.75ZM313.5 639.75C306.75 639.75 303 636.5 301.75 630.25L283 551.25C264.5 546.25 247 539.25 233.5 531.25L164.5 574.25C159.25 577.5 153.75 577.25 149 572L110.25 533.25C105.25 528.5 105 523.75 108.5 518L151.25 449C144.5 436 136.75 418.5 131.75 400L52.5 381.5C46.25 380.25 43 376.5 43 369.5L43 314.25C43 307.25 46 303.75 52.5 302.25L131.5 283.5C136.5 264.25 145.25 246.25 150.75 234.25L108.25 165.5C104.5 159.5 104.75 154.5 109.75 149.75L148.75 111.25C153.75 106.5 158.5 105.75 164.5 109.25L233 151.5C246.5 144.25 265 136.5 283.25 131.5L301.75 52.5C303 46 306.75 43 313.5 43L369.75 43C376.75 43 380.25 45.75 381.5 52.5L400.25 132C419.25 136.75 436 144.5 449.75 151.75L518.5 109.25C524.75 105.75 529.25 106.5 534.5 111.25L573.5 149.75C578.25 154.5 578.5 159.5 574.75 165.5L532.25 234.25C538.25 246.25 546.75 264 551.75 283.5L630.75 302.25C637.25 303.75 640.25 307.25 640.25 314.25L640.25 369.5C640.25 376.5 637 380.25 630.75 381.5L551.5 400C546.5 418.5 539 436 531.75 449L574.5 518C578 523.75 577.75 528.5 573 533.25L534.25 572C529.25 577.25 524 577.5 518.5 574.25L449.5 531.25C436.25 539.25 419 546.25 400.25 551.25L381.5 630.25C380.25 636.75 376.75 639.75 369.75 639.75ZM341.75 464.25C409.75 464.25 464.75 409.25 464.75 341.25C464.75 273 409.75 218.25 341.75 218.25C273.5 218.25 218.5 273 218.5 341.25C218.5 409.25 273.5 464.25 341.75 464.25ZM341.75 421.5C297.25 421.5 261.5 385.5 261.5 341.25C261.5 296.75 297.25 261 341.75 261C386 261 422 296.75 422 341.25C422 385.5 386 421.5 341.75 421.5Z" fill="white" fill-opacity="0.85"/>
 </g>
</svg>
