<?xml version="1.0" encoding="UTF-8"?>
<!--Generator: Apple Native CoreSVG 341-->
<!DOCTYPE svg
PUBLIC "-//W3C//DTD SVG 1.1//EN"
       "http://www.w3.org/Graphics/SVG/1.1/DTD/svg11.dtd">
<svg version="1.1" xmlns="http://www.w3.org/2000/svg" xmlns:xlink="http://www.w3.org/1999/xlink" viewBox="0 0 614.5 693.75">
 <g>
  <rect height="693.75" opacity="0" width="614.5" x="0" y="0"/>
  <path d="M137 665.5L477.5 665.5C534.5 665.5 566.5 634.5 566.5 577.5L566.5 370.25L570.75 370.25C598.75 365.5 614.5 343.5 614.5 312L614.5 231C614.5 194.5 594 171 557 171L482 171C501.25 154.25 512.5 130.25 512.5 101.75C512.5 42 465.75 0 405.5 0C359.75 0 323 25.5 307.25 69.5C291.5 25.5 254.75 0 209 0C148.75 0 102 42 102 101.75C102 130.25 113.25 154.25 132.5 171L57.5 171C22 171 0 194.5 0 231L0 312C0 343.5 15.75 365.5 43.75 370.25L48 370.25L48 577.5C48 634.5 80 665.5 137 665.5ZM280.25 624L136.75 624C108.25 624 92.25 608.25 92.25 579.5L92.25 372L280.25 372ZM334.25 624L334.25 372L522.25 372L522.25 579.5C522.25 608.25 506.25 624 477.75 624ZM280.25 330.25L67.75 330.25C51.5 330.25 44.25 322.5 44.25 306L44.25 236.5C44.25 220.25 51.5 212.75 67.75 212.75L280.25 212.75ZM334.25 330.25L334.25 212.75L547 212.75C563.25 212.75 570.25 220.25 570.25 236.5L570.25 306C570.25 322.5 563.25 330.25 547 330.25ZM282.5 171L236 171C183.25 171 151.5 142 151.5 104C151.5 69.5 176.5 49 211.5 49C251.75 49 282.5 80 282.5 129.75ZM332 171L332 129.75C332 80 362.75 49 403 49C438 49 463 69.5 463 104C463 142 431.25 171 378.5 171Z" fill="white" fill-opacity="0.85"/>
 </g>
</svg>
