<?xml version="1.0" encoding="UTF-8"?>
<!--Generator: Apple Native CoreSVG 341-->
<!DOCTYPE svg
PUBLIC "-//W3C//DTD SVG 1.1//EN"
       "http://www.w3.org/Graphics/SVG/1.1/DTD/svg11.dtd">
<svg version="1.1" xmlns="http://www.w3.org/2000/svg" xmlns:xlink="http://www.w3.org/1999/xlink" viewBox="0 0 614 693.75">
 <g>
  <rect height="693.75" opacity="0" width="614" x="0" y="0"/>
  <path d="M47.75 586.25C47.75 637.5 78.5 665.5 129.75 665.5L282.25 665.5L282.25 376.5L47.75 376.5ZM331.75 665.5L484.25 665.5C535.5 665.5 566.25 637.5 566.25 586.25L566.25 376.5L331.75 376.5ZM0 296.75C0 329.5 18.75 344.25 51.75 344.25L282.25 344.25L282.25 173.5L235.75 173.5C183 173.5 151.25 142 151.25 104C151.25 69.5 176.25 49 211.25 49C251.5 49 282.25 80 282.25 129.75L282.25 173.5L331.75 173.5L331.75 129.75C331.75 80 362.5 49 402.75 49C437.75 49 462.75 69.5 462.75 104C462.75 142 431 173.5 378.25 173.5L331.75 173.5L331.75 344.25L562.25 344.25C595.5 344.25 614 329.5 614 296.75L614 221C614 188 595.5 173.5 562.25 173.5L479.5 173.5C500 156.25 512.25 131.5 512.25 101.75C512.25 42 465.5 0 405.25 0C359.5 0 322.75 25.5 307 69.5C291.25 25.5 254.5 0 208.75 0C148.5 0 101.75 42 101.75 101.75C101.75 131.5 114 156.25 134.5 173.5L51.75 173.5C20 173.5 0 188 0 221Z" fill="white" fill-opacity="0.85"/>
 </g>
</svg>
