<?xml version="1.0" encoding="UTF-8"?>
<!--Generator: Apple Native CoreSVG 341-->
<!DOCTYPE svg
PUBLIC "-//W3C//DTD SVG 1.1//EN"
       "http://www.w3.org/Graphics/SVG/1.1/DTD/svg11.dtd">
<svg version="1.1" xmlns="http://www.w3.org/2000/svg" xmlns:xlink="http://www.w3.org/1999/xlink" viewBox="0 0 871.75 904.25">
 <g>
  <rect height="904.25" opacity="0" width="871.75" x="0" y="0"/>
  <path d="M436 560C462.75 560.5 489.5 553.75 523.75 538L843 392C862 383.25 871.75 366.5 871.75 348.75C871.75 331.25 862 314 843 305.25L523.75 159.25C489.5 143.75 462.75 137 436 137.25C409 137 382.5 143.75 348.25 159.25L29 305.25C9.75 314 0 331.25 0 348.75C0 366.5 9.75 383.25 29 392L348.25 538C382.5 553.75 409 560.5 436 560ZM436 516.5C414 516.5 393 511.25 365 498.25L62.25 360C56.25 357.25 53.25 353.25 53.25 348.75C53.25 344 56.25 340 62.25 337.25L365 199.25C393 186.25 414 181 436 181C458 181 478.75 186.25 506.75 199.25L809.75 337.25C815.5 340 818.5 344 818.5 348.75C818.5 353.25 815.5 357.25 809.75 360L506.75 498.25C478.75 511.25 458 516.5 436 516.5ZM129.75 590.5C129.75 679 247.75 761.75 436 761.75C624 761.75 742 679 742 590.5L742 422.75L697.75 422.75L697.75 590.5C697.75 653.75 597.5 719.75 436 719.75C274.5 719.75 174.25 653.75 174.25 590.5L174.25 422.75L129.75 422.75ZM437 383.5C472 383.5 503.75 368 503.75 348.5C503.75 329.75 472 314.25 437 314.25C401.75 314.25 369.75 329.75 369.75 348.5C369.75 368 401.75 383.5 437 383.5ZM236.75 467.25L432.75 366.5L417.5 337.75L200.25 448ZM200.25 777.25L236.75 777.25L236.75 467.25L200.25 449.25ZM175 779.75L175 865.25C175 889.25 190 904.25 214 904.25L222.75 904.25C246.5 904.25 261.75 889.25 261.75 865.25L261.75 779.75C261.75 756 246.5 741 222.75 741L214 741C190 741 175 756 175 779.75Z" fill="white" fill-opacity="0.85"/>
 </g>
</svg>
