<?xml version="1.0" encoding="UTF-8"?>
<!--Generator: Apple Native CoreSVG 341-->
<!DOCTYPE svg
PUBLIC "-//W3C//DTD SVG 1.1//EN"
       "http://www.w3.org/Graphics/SVG/1.1/DTD/svg11.dtd">
<svg version="1.1" xmlns="http://www.w3.org/2000/svg" xmlns:xlink="http://www.w3.org/1999/xlink" viewBox="0 0 633 600.75">
 <g>
  <rect height="600.75" opacity="0" width="633" x="0" y="0"/>
  <path d="M0 208.75C0 344.5 116.5 477.5 295.5 592.75C301.75 596.75 310.5 600.75 316.5 600.75C322.75 600.75 331.5 596.75 337.75 592.75C516.5 477.5 633 344.5 633 208.75C633 97.25 556.25 17.75 453.5 17.75C394.75 17.75 344.75 47.25 316.5 92.5C288.5 47.5 238.5 17.75 179.5 17.75C76.75 17.75 0 97.25 0 208.75ZM44.25 208.75C44.25 121.25 101.5 62 179 62C239.25 62 275.5 99.5 297.25 134.75C304.75 146.25 309.75 149.75 316.5 149.75C323.5 149.75 327.75 146 336 134.75C358.75 100 394 62 454 62C531.5 62 588.75 121.25 588.75 208.75C588.75 329.5 462.25 458 322.5 551C319.75 552.75 317.75 554.25 316.5 554.25C315.25 554.25 313.25 552.75 310.5 551C170.75 458 44.25 329.5 44.25 208.75Z" fill="white" fill-opacity="0.85"/>
 </g>
</svg>
