<?xml version="1.0" encoding="UTF-8"?>
<!--Generator: Apple Native CoreSVG 341-->
<!DOCTYPE svg
PUBLIC "-//W3C//DTD SVG 1.1//EN"
       "http://www.w3.org/Graphics/SVG/1.1/DTD/svg11.dtd">
<svg version="1.1" xmlns="http://www.w3.org/2000/svg" xmlns:xlink="http://www.w3.org/1999/xlink" viewBox="0 0 754.25 671.25">
 <g>
  <rect height="671.25" opacity="0" width="754.25" x="0" y="0"/>
  <path d="M289.5 626.5L289.5 433.25C289.5 419.25 298.75 410.25 312.75 410.25L441.75 410.25C455.75 410.25 464.75 419.25 464.75 433.25L464.75 626.5ZM95.5 603.25C95.5 645.75 121 670.75 164 670.75L590.25 670.75C633.25 670.75 658.75 645.75 658.75 603.25L658.75 334.25L396.75 114.5C384 103.5 369.5 104 357.25 114.5L95.5 333.75ZM23.75 333.25C31.25 333.25 37.5 329.25 43 324.5L365 54.25C368.75 51 373 49.5 377 49.5C381.25 49.5 385.5 51 389.25 54.25L711.25 324.5C716.75 329.25 722.75 333.25 730.5 333.25C745.25 333.25 754.25 322.5 754.25 311.5C754.25 304.75 751.5 298.25 745.25 293L413.25 14.5C401.75 4.75 389.5 0 377 0C364.75 0 352.5 4.75 341 14.5L9 293C2.75 298.25 0 304.75 0 311.5C0 322.5 8.75 333.25 23.75 333.25ZM590.25 176.75L663.75 238.75L663.75 96.5C663.75 84 655.5 76 643 76L611.25 76C598.75 76 590.25 84 590.25 96.5Z" fill="white" fill-opacity="0.85"/>
 </g>
</svg>
