<?xml version="1.0" encoding="UTF-8"?>
<!--Generator: Apple Native CoreSVG 341-->
<!DOCTYPE svg
PUBLIC "-//W3C//DTD SVG 1.1//EN"
       "http://www.w3.org/Graphics/SVG/1.1/DTD/svg11.dtd">
<svg version="1.1" xmlns="http://www.w3.org/2000/svg" xmlns:xlink="http://www.w3.org/1999/xlink" viewBox="0 0 754.25 671.25">
 <g>
  <rect height="671.25" opacity="0" width="754.25" x="0" y="0"/>
  <path d="M284.5 642.75L469.75 642.75L469.75 433.25C469.75 419.25 460.75 410.25 446.75 410.25L307.75 410.25C293.75 410.25 284.5 419.25 284.5 433.25ZM23.75 333.25C31.25 333.25 37.5 329.25 43 324.5L365 54.25C368.75 51 373 49.5 377 49.5C381.25 49.5 385.5 51 389.25 54.25L711.25 324.5C716.75 329.25 722.75 333.25 730.5 333.25C745.25 333.25 754.25 322.5 754.25 311.5C754.25 304.75 751.5 298.25 745.25 293L413.25 14.5C401.75 4.75 389.5 0 377 0C364.75 0 352.5 4.75 341 14.5L9 293C2.75 298.25 0 304.75 0 311.5C0 322.5 8.75 333.25 23.75 333.25ZM590.25 176.75L663.75 238.75L663.75 96.5C663.75 84 655.5 76 643 76L611.25 76C598.75 76 590.25 84 590.25 96.5ZM159.5 670.75L594.75 670.75C638.75 670.75 663.75 646 663.75 602.75L663.75 246.25L619.5 215.5L619.5 592C619.5 614.75 608 626.5 585.25 626.5L168.75 626.5C146.25 626.5 134.75 614.75 134.75 592L134.75 216L90.5 246.25L90.5 602.75C90.5 646.25 115.5 670.75 159.5 670.75Z" fill="white" fill-opacity="0.85"/>
 </g>
</svg>
