<?xml version="1.0" encoding="UTF-8"?>
<!--Generator: Apple Native CoreSVG 341-->
<!DOCTYPE svg
PUBLIC "-//W3C//DTD SVG 1.1//EN"
       "http://www.w3.org/Graphics/SVG/1.1/DTD/svg11.dtd">
<svg version="1.1" xmlns="http://www.w3.org/2000/svg" xmlns:xlink="http://www.w3.org/1999/xlink" viewBox="0 0 602 796.75">
 <g>
  <rect height="796.75" opacity="0" width="602" x="0" y="0"/>
  <path d="M602 609C602 689.25 476.75 745.25 301.25 745.25C125.5 745.25 0 689.25 0 609C0 541.882 88.3367 491.657 220.75 477.368L220.75 517.5C220.75 518.808 220.756 520.107 220.829 521.309C123.288 533.215 55.25 566.835 55.25 609C55.25 662.25 162.75 701.75 301 701.75C438.75 701.75 546.75 661.75 546.75 609C546.75 567.189 478.25 533.306 380.672 521.319C380.744 520.113 380.75 518.811 380.75 517.5L380.75 477.275C513.448 491.435 602 541.733 602 609Z" fill="white" fill-opacity="0.85"/>
  <path d="M414 168.25C414 222.25 376.5 267.5 326 278.5L326 507.5C326 589 312 632.5 301 632.5C290 632.5 275.75 588.5 275.75 507.5L275.75 278.5C225 267.25 187.75 222.25 187.75 168.25C187.75 105.75 238 54.75 301 54.75C363.75 54.75 414 105.75 414 168.25ZM229 134.75C229 155.75 247.25 173.75 267.75 173.75C289 173.75 306.5 155.75 306.5 134.75C306.5 113.75 289 96 267.75 96C247.25 96 229 113.75 229 134.75Z" fill="white" fill-opacity="0.85"/>
 </g>
</svg>
