<?xml version="1.0" encoding="UTF-8"?>
<!--Generator: Apple Native CoreSVG 341-->
<!DOCTYPE svg
PUBLIC "-//W3C//DTD SVG 1.1//EN"
       "http://www.w3.org/Graphics/SVG/1.1/DTD/svg11.dtd">
<svg version="1.1" xmlns="http://www.w3.org/2000/svg" xmlns:xlink="http://www.w3.org/1999/xlink" viewBox="0 0 669.5 564.25">
 <g>
  <rect height="564.25" opacity="0" width="669.5" x="0" y="0"/>
  <path d="M277.75 546L277.75 345.25C277.75 333.5 271 327 259 327C253.5 327 248.5 329 243.75 332.5L123.25 430.75C113.25 439 112.75 452 123.25 460.25L243.75 558.75C248.5 562.25 253.5 564.25 259 564.25C271 564.25 277.75 557.75 277.75 546ZM645.5 272.75C632 272.75 621.5 283.25 621.5 297L621.5 327C621.5 385 583 421.5 522 421.5L230 421.5C217 421.5 206.5 432 206.5 445.25C206.5 458.25 217 469 230 469L518 469C611.75 469 669.5 416.25 669.5 330L669.5 297C669.5 283.25 659.25 272.75 645.5 272.75Z" fill="white" fill-opacity="0.85"/>
  <path d="M391.75 18.75L391.75 219.5C391.75 231.25 398.5 237.75 410.5 237.75C416 237.75 421 236 425.75 232.25L546.5 134C556.25 126 556.75 112.75 546.5 104.5L425.75 6.25C421 2.5 416 0.75 410.5 0.75C398.5 0.75 391.75 7.25 391.75 18.75ZM24 292C37.5 292 48 281.5 48 267.75L48 237.75C48 179.75 86.5 143.5 147.5 143.5L439.5 143.5C452.5 143.5 463.25 132.75 463.25 119.75C463.25 106.5 452.5 96 439.5 96L151.5 96C57.75 96 0 148.5 0 234.75L0 267.75C0 281.5 10.5 292 24 292Z" fill="white" fill-opacity="0.85"/>
 </g>
</svg>
