<?xml version="1.0" encoding="UTF-8"?>
<!--Generator: Apple Native CoreSVG 341-->
<!DOCTYPE svg
PUBLIC "-//W3C//DTD SVG 1.1//EN"
       "http://www.w3.org/Graphics/SVG/1.1/DTD/svg11.dtd">
<svg version="1.1" xmlns="http://www.w3.org/2000/svg" xmlns:xlink="http://www.w3.org/1999/xlink" viewBox="0 0 587.75 587.75">
 <g>
  <rect height="587.75" opacity="0" width="587.75" x="0" y="0"/>
  <path d="M378.75 587.75L530.25 587.75C568.25 587.75 587.75 569 587.75 529.25L587.75 379.75C587.75 340 568.25 321.25 530.25 321.25L378.75 321.25C340.5 321.25 321.25 340 321.25 379.75L321.25 529.25C321.25 569 340.5 587.75 378.75 587.75ZM379.5 548.5C366.25 548.5 360.5 542.5 360.5 529.25L360.5 380C360.5 366.75 366.25 360.5 379.5 360.5L529.75 360.5C542.5 360.5 548.5 366.75 548.5 380L548.5 529.25C548.5 542.5 542.5 548.5 529.75 548.5Z" fill="white" fill-opacity="0.85"/>
  <path d="M57.5 587.75L209 587.75C247 587.75 266.5 569 266.5 529.25L266.5 379.75C266.5 340 247 321.25 209 321.25L57.5 321.25C19.5 321.25 0 340 0 379.75L0 529.25C0 569 19.5 587.75 57.5 587.75ZM58 548.5C45.25 548.5 39.25 542.5 39.25 529.25L39.25 380C39.25 366.75 45.25 360.5 58 360.5L208.25 360.5C221 360.5 227.25 366.75 227.25 380L227.25 529.25C227.25 542.5 221 548.5 208.25 548.5Z" fill="white" fill-opacity="0.85"/>
  <path d="M378.75 266.5L530.25 266.5C568.25 266.5 587.75 248 587.75 208L587.75 58.5C587.75 18.75 568.25 0 530.25 0L378.75 0C340.5 0 321.25 18.75 321.25 58.5L321.25 208C321.25 248 340.5 266.5 378.75 266.5ZM379.5 227.25C366.25 227.25 360.5 221.25 360.5 207.75L360.5 58.5C360.5 45.5 366.25 39.25 379.5 39.25L529.75 39.25C542.5 39.25 548.5 45.5 548.5 58.5L548.5 207.75C548.5 221.25 542.5 227.25 529.75 227.25Z" fill="white" fill-opacity="0.85"/>
  <path d="M57.5 266.5L209 266.5C247 266.5 266.5 248 266.5 208L266.5 58.5C266.5 18.75 247 0 209 0L57.5 0C19.5 0 0 18.75 0 58.5L0 208C0 248 19.5 266.5 57.5 266.5ZM58 227.25C45.25 227.25 39.25 221.25 39.25 207.75L39.25 58.5C39.25 45.5 45.25 39.25 58 39.25L208.25 39.25C221 39.25 227.25 45.5 227.25 58.5L227.25 207.75C227.25 221.25 221 227.25 208.25 227.25Z" fill="white" fill-opacity="0.85"/>
 </g>
</svg>
