<?xml version="1.0" encoding="UTF-8"?>
<!--Generator: Apple Native CoreSVG 341-->
<!DOCTYPE svg
PUBLIC "-//W3C//DTD SVG 1.1//EN"
       "http://www.w3.org/Graphics/SVG/1.1/DTD/svg11.dtd">
<svg version="1.1" xmlns="http://www.w3.org/2000/svg" xmlns:xlink="http://www.w3.org/1999/xlink" viewBox="0 0 757.5 542.75">
 <g>
  <rect height="542.75" opacity="0" width="757.5" x="0" y="0"/>
  <path d="M97.25 542.75L660 542.75C724.75 542.75 757.5 510 757.5 446.25L757.5 259.25C757.5 232.75 753.75 220 740.75 203.75L623.25 56.75C588.5 13.75 572 0.75 518.25 0.75L239.25 0.75C185.5 0.75 169 13.75 134.25 56.75L16.5 203.75C3.75 220 0 232.75 0 259.25L0 446.25C0 510.25 32.75 542.75 97.25 542.75ZM58.75 240.5C49.5 240.5 47.5 232.5 52.25 226.5L177.5 67.75C193.25 47.75 211 39.75 235.5 39.75L522 39.75C546.5 39.75 564.25 47.75 580 67.75L705.25 226.5C710 232.5 708 240.5 698.75 240.5L479.25 240.5C464.25 240.5 457.25 251.5 457.25 263.75L457.25 265.25C457.25 306.25 425.5 345.75 378.75 345.75C331.75 345.75 300.25 306.25 300.25 265.25L300.25 263.75C300.25 251.5 293 240.5 278.25 240.5ZM98.25 498.25C63.25 498.25 44.25 479.75 44.25 444L44.25 281L258 281C264.25 342.25 314.5 386.75 378.75 386.75C443 386.75 493 342 499.25 281L713 281L713 444C713 479.75 693.5 498.25 659.25 498.25Z" fill="white" fill-opacity="0.85"/>
 </g>
</svg>
